<?xml version="1.0" encoding="UTF-8" standalone="no"?>
<!-- Created with Inkscape (http://www.inkscape.org/) -->

<svg
   width="207.09615mm"
   height="152.61153mm"
   viewBox="0 0 207.09615 152.61153"
   version="1.1"
   id="svg1"
   inkscape:version="1.4 (86a8ad7, 2024-10-11)"
   sodipodi:docname="logo_horizontal.svg"
   xmlns:inkscape="http://www.inkscape.org/namespaces/inkscape"
   xmlns:sodipodi="http://sodipodi.sourceforge.net/DTD/sodipodi-0.dtd"
   xmlns="http://www.w3.org/2000/svg"
   xmlns:svg="http://www.w3.org/2000/svg">
  <sodipodi:namedview
     id="namedview1"
     pagecolor="#ffffff"
     bordercolor="#000000"
     borderopacity="0.25"
     inkscape:showpageshadow="2"
     inkscape:pageopacity="0.0"
     inkscape:pagecheckerboard="0"
     inkscape:deskcolor="#d1d1d1"
     inkscape:document-units="mm"
     showguides="true"
     inkscape:zoom="0.7071068"
     inkscape:cx="836.5073"
     inkscape:cy="423.55695"
     inkscape:window-width="1920"
     inkscape:window-height="1017"
     inkscape:window-x="2552"
     inkscape:window-y="-8"
     inkscape:window-maximized="1"
     inkscape:current-layer="layer1"
     showgrid="true">
    <sodipodi:guide
       position="232.36412,141.76038"
       orientation="0,-1"
       id="guide26"
       inkscape:locked="false" />
    <sodipodi:guide
       position="162.89714,185.97713"
       orientation="1,0"
       id="guide27"
       inkscape:locked="false" />
    <inkscape:grid
       id="grid1"
       units="mm"
       originx="0"
       originy="0"
       spacingx="1"
       spacingy="0.99999997"
       empcolor="#0099e5"
       empopacity="0.30196078"
       color="#0099e5"
       opacity="0.14901961"
       empspacing="5"
       enabled="true"
       visible="true" />
  </sodipodi:namedview>
  <defs
     id="defs1" />
  <g
     inkscape:groupmode="layer"
     id="layer2"
     inkscape:label="Layer 2"
     transform="matrix(1.8156939,0,0,1.8275931,-71.928103,-152.41924)"
     style="display:inline">
    <path
       sodipodi:type="spiral"
       style="display:inline;fill:none;fill-rule:evenodd;stroke:#3a5a40;stroke-width:4.11718319;stroke-dasharray:none;stroke-opacity:1"
       id="path1"
       sodipodi:cx="76.345398"
       sodipodi:cy="122.44417"
       sodipodi:expansion="2"
       sodipodi:revolution="2.04"
       sodipodi:radius="45.434284"
       sodipodi:argument="-18.963825"
       sodipodi:t0="0"
       d="m 76.345398,122.44417 c 0.300941,-0.0345 0.134525,0.58569 0.0778,0.67789 -0.650043,1.05668 -2.205638,0.35343 -2.789377,-0.36669 -1.759048,-2.17001 -0.08,-5.22688 2.011363,-6.41225 4.416619,-2.5033 9.659941,0.65917 11.546517,4.85623 3.321888,7.39017 -1.861186,15.51314 -8.901269,18.19217 -11.095819,4.22239 -22.789559,-3.52503 -26.34922,-14.1465 -5.206822,-15.53635 5.650376,-31.490587 20.591916,-36.017659 20.713224,-6.275809 41.616971,8.237159 47.197491,28.237519 1.01559,3.63984 1.55601,7.40918 1.62299,11.18694"
       transform="matrix(-1,0,0,1,172.73636,2.8132183)" />
    <path
       sodipodi:type="spiral"
       style="display:inline;fill:none;fill-rule:evenodd;stroke:#3a5a40;stroke-width:4.94062;stroke-dasharray:none;stroke-opacity:1"
       id="path7"
       sodipodi:cx="76.345398"
       sodipodi:cy="122.44417"
       sodipodi:expansion="2"
       sodipodi:revolution="2.04"
       sodipodi:radius="45.434284"
       sodipodi:argument="-18.963825"
       sodipodi:t0="0"
       d="m 76.345398,122.44417 c 0.300941,-0.0345 0.134525,0.58569 0.0778,0.67789 -0.650043,1.05668 -2.205638,0.35343 -2.789377,-0.36669 -1.759048,-2.17001 -0.08,-5.22688 2.011363,-6.41225 4.416619,-2.5033 9.659941,0.65917 11.546517,4.85623 3.321888,7.39017 -1.861186,15.51314 -8.901269,18.19217 -11.095819,4.22239 -22.789559,-3.52503 -26.34922,-14.1465 -5.206822,-15.53635 5.650376,-31.490587 20.591916,-36.017659 20.713224,-6.275809 41.616971,8.237159 47.197491,28.237519 1.01559,3.63984 1.55601,7.40918 1.62299,11.18694"
       transform="matrix(1,0,0,-1,20.034655,247.61915)" />
    <path
       sodipodi:type="spiral"
       style="display:inline;fill:none;fill-rule:evenodd;stroke:#577f57;stroke-width:3.53245631;stroke-dasharray:none;stroke-opacity:1"
       id="path2"
       sodipodi:cx="76.345398"
       sodipodi:cy="122.44417"
       sodipodi:expansion="2"
       sodipodi:revolution="2.04"
       sodipodi:radius="45.434284"
       sodipodi:argument="-18.963825"
       sodipodi:t0="0"
       d="m 76.345398,122.44417 c 0.300941,-0.0345 0.134525,0.58569 0.0778,0.67789 -0.650043,1.05668 -2.205638,0.35343 -2.789377,-0.36669 -1.759048,-2.17001 -0.08,-5.22688 2.011363,-6.41225 4.416619,-2.5033 9.659941,0.65917 11.546517,4.85623 3.321888,7.39017 -1.861186,15.51314 -8.901269,18.19217 -11.095819,4.22239 -22.789559,-3.52503 -26.34922,-14.1465 -5.206822,-15.53635 5.650376,-31.490587 20.591916,-36.017659 20.713224,-6.275809 41.616971,8.237159 47.197491,28.237519 1.01559,3.63984 1.55601,7.40918 1.62299,11.18694"
       transform="matrix(-1.0511525,0,0,1.0511525,176.62252,-3.3519515)" />
    <path
       sodipodi:type="spiral"
       style="display:inline;fill:none;fill-rule:evenodd;stroke:#577f57;stroke-width:2.67514;stroke-dasharray:none;stroke-opacity:1"
       id="path3"
       sodipodi:cx="76.345398"
       sodipodi:cy="122.44417"
       sodipodi:expansion="2"
       sodipodi:revolution="2.04"
       sodipodi:radius="45.434284"
       sodipodi:argument="-18.963825"
       sodipodi:t0="0"
       d="m 76.345398,122.44417 c 0.300941,-0.0345 0.134525,0.58569 0.0778,0.67789 -0.650043,1.05668 -2.205638,0.35343 -2.789377,-0.36669 -1.759048,-2.17001 -0.08,-5.22688 2.011363,-6.41225 4.416619,-2.5033 9.659941,0.65917 11.546517,4.85623 3.321888,7.39017 -1.861186,15.51314 -8.901269,18.19217 -11.095819,4.22239 -22.789559,-3.52503 -26.34922,-14.1465 -5.206822,-15.53635 5.650376,-31.490587 20.591916,-36.017659 20.713224,-6.275809 41.616971,8.237159 47.197491,28.237519 1.01559,3.63984 1.55601,7.40918 1.62299,11.18694"
       transform="matrix(-1.0260354,0,0,1.0260354,174.7118,-0.3180828)" />
    <path
       sodipodi:type="spiral"
       style="display:inline;fill:none;fill-rule:evenodd;stroke:#577f57;stroke-width:3.65570582;stroke-dasharray:none;stroke-opacity:1"
       id="path8"
       sodipodi:cx="76.345398"
       sodipodi:cy="122.44417"
       sodipodi:expansion="2"
       sodipodi:revolution="2.04"
       sodipodi:radius="45.434284"
       sodipodi:argument="-18.963825"
       sodipodi:t0="0"
       d="m 76.345398,122.44417 c 0.300941,-0.0345 0.134525,0.58569 0.0778,0.67789 -0.650043,1.05668 -2.205638,0.35343 -2.789377,-0.36669 -1.759048,-2.17001 -0.08,-5.22688 2.011363,-6.41225 4.416619,-2.5033 9.659941,0.65917 11.546517,4.85623 3.321888,7.39017 -1.861186,15.51314 -8.901269,18.19217 -11.095819,4.22239 -22.789559,-3.52503 -26.34922,-14.1465 -5.206822,-15.53635 5.650376,-31.490587 20.591916,-36.017659 20.713224,-6.275809 41.616971,8.237159 47.197491,28.237519 1.01559,3.63984 1.55601,7.40918 1.62299,11.18694"
       transform="matrix(1.0511525,0,0,-1.0511525,16.148495,253.78431)" />
    <path
       sodipodi:type="spiral"
       style="display:inline;fill:none;fill-rule:evenodd;stroke:#577f57;stroke-width:3.61859;stroke-dasharray:none;stroke-opacity:1"
       id="path12"
       sodipodi:cx="76.345398"
       sodipodi:cy="122.44417"
       sodipodi:expansion="2"
       sodipodi:revolution="2.04"
       sodipodi:radius="45.434284"
       sodipodi:argument="-18.963825"
       sodipodi:t0="0"
       d="m 76.345398,122.44417 c 0.300941,-0.0345 0.134525,0.58569 0.0778,0.67789 -0.650043,1.05668 -2.205638,0.35343 -2.789377,-0.36669 -1.759048,-2.17001 -0.08,-5.22688 2.011363,-6.41225 4.416619,-2.5033 9.659941,0.65917 11.546517,4.85623 3.321888,7.39017 -1.861186,15.51314 -8.901269,18.19217 -11.095819,4.22239 -22.789559,-3.52503 -26.34922,-14.1465 -5.206822,-15.53635 5.650376,-31.490587 20.591916,-36.017659 20.713224,-6.275809 41.616971,8.237159 47.197491,28.237519 1.01559,3.63984 1.55601,7.40918 1.62299,11.18694"
       transform="matrix(1.0260354,0,0,-1.0260354,18.059218,251.03007)" />
    <path
       sodipodi:type="star"
       style="display:inline;fill:#3a5a40;fill-opacity:1;stroke:#577f57;stroke-width:2.58069;stroke-dasharray:none;stroke-opacity:1"
       id="path4"
       inkscape:flatsided="false"
       sodipodi:sides="3"
       sodipodi:cx="16.491638"
       sodipodi:cy="44.063599"
       sodipodi:r1="8.5074043"
       sodipodi:r2="4.2537022"
       sodipodi:arg1="1.5707963"
       sodipodi:arg2="2.6179939"
       inkscape:rounded="-2.4286129e-17"
       inkscape:randomized="0"
       d="m 16.491638,52.571003 -3.683814,-6.380553 -3.6838142,-6.380553 7.3676282,-10e-7 7.367628,0 -3.683814,6.380554 z"
       inkscape:transform-center-y="-3.0961279"
       transform="matrix(-0.7749875,0,0,-0.77498751,155.40489,149.7652)"
       inkscape:transform-center-x="-7.3224945e-06" />
    <path
       sodipodi:type="star"
       style="display:inline;fill:#3a5a40;fill-opacity:1;stroke:#577f57;stroke-width:2.58069;stroke-dasharray:none;stroke-opacity:1"
       id="path10"
       inkscape:flatsided="false"
       sodipodi:sides="3"
       sodipodi:cx="16.491638"
       sodipodi:cy="44.063599"
       sodipodi:r1="8.5074043"
       sodipodi:r2="4.2537022"
       sodipodi:arg1="1.5707963"
       sodipodi:arg2="2.6179939"
       inkscape:rounded="-2.4286129e-17"
       inkscape:randomized="0"
       d="m 16.491638,52.571003 -3.683814,-6.380553 -3.6838142,-6.380553 7.3676282,-10e-7 7.367628,0 -3.683814,6.380554 z"
       inkscape:transform-center-y="3.0961311"
       transform="matrix(0.7749875,0,0,0.7749875,37.366131,100.66716)"
       inkscape:transform-center-x="2.7457041e-06" />
  </g>
  <g
     inkscape:groupmode="layer"
     id="layer3"
     inkscape:label="Layer 3"
     transform="matrix(1.8923629,0,0,1.8784014,-79.250823,-158.01013)"
     style="display:none">
    <path
       sodipodi:type="star"
       style="display:inline;fill:#2a426f;fill-opacity:1;stroke:#385894;stroke-width:0.732953;stroke-dasharray:none;stroke-opacity:1"
       id="path27"
       inkscape:flatsided="false"
       sodipodi:sides="2"
       sodipodi:cx="97.523987"
       sodipodi:cy="38.990936"
       sodipodi:r1="13.247861"
       sodipodi:r2="5.9615378"
       sodipodi:arg1="0"
       sodipodi:arg2="1.5707963"
       inkscape:rounded="-1.0408341e-17"
       inkscape:randomized="0"
       d="M 110.77185,38.990936 97.523987,44.952474 84.276126,38.990936 97.523987,33.029398 Z"
       transform="matrix(2.7286886,0,0,2.7286886,-169.7322,18.712751)" />
    <path
       sodipodi:type="star"
       style="display:inline;fill:#2a426f;fill-opacity:1;stroke:#385894;stroke-width:0.732953;stroke-dasharray:none;stroke-opacity:1"
       id="path28"
       inkscape:flatsided="false"
       sodipodi:sides="2"
       sodipodi:cx="97.523987"
       sodipodi:cy="38.990936"
       sodipodi:r1="13.247861"
       sodipodi:r2="5.9615378"
       sodipodi:arg1="0"
       sodipodi:arg2="1.5707963"
       inkscape:rounded="-1.0408341e-17"
       inkscape:randomized="0"
       d="M 110.77185,38.990936 97.523987,44.952474 84.276126,38.990936 97.523987,33.029398 Z"
       transform="matrix(2.1501313,0,0,2.1501313,-113.29523,41.14033)" />
    <path
       sodipodi:type="star"
       style="display:inline;fill:#1c2c4a;fill-opacity:1;stroke:#385894;stroke-width:0.732953;stroke-dasharray:none;stroke-opacity:1"
       id="path29"
       inkscape:flatsided="false"
       sodipodi:sides="2"
       sodipodi:cx="97.523987"
       sodipodi:cy="38.990936"
       sodipodi:r1="13.247861"
       sodipodi:r2="5.9615378"
       sodipodi:arg1="0"
       sodipodi:arg2="1.5707963"
       inkscape:rounded="-1.0408341e-17"
       inkscape:randomized="0"
       d="M 110.77185,38.990936 97.523987,44.952474 84.276126,38.990936 97.523987,33.029398 Z"
       transform="matrix(0.7386293,0,0,0.7386293,24.362536,96.310528)" />
  </g>
  <g
     inkscape:groupmode="layer"
     id="layer1"
     inkscape:label="Layer 4">
    <text
       xml:space="preserve"
       style="font-style:normal;font-variant:normal;font-weight:300;font-stretch:normal;font-size:32.4556px;line-height:0;font-family:Bahnschrift;-inkscape-font-specification:'Bahnschrift Light';text-align:start;letter-spacing:11.9062px;word-spacing:0px;writing-mode:lr-tb;direction:ltr;text-anchor:start;fill:none;stroke:#ffffff;stroke-width:0.5;stroke-dasharray:none"
       x="18.723972"
       y="87.28315"
       id="text1"><tspan
         id="tspan1"
         style="font-style:normal;font-variant:normal;font-weight:300;font-stretch:normal;font-family:Lato;-inkscape-font-specification:'Lato Light';letter-spacing:11.9062px;stroke:#ffffff;stroke-width:0.5;stroke-dasharray:none;stroke-opacity:1;fill:none"
         x="18.723972"
         y="87.28315"
         sodipodi:role="line">Pursuit</tspan></text>
  </g>
</svg>
